<svg width="28" height="30" viewBox="0 0 28 30" fill="none" xmlns="http://www.w3.org/2000/svg">
<path d="M22 29C22.5523 29 23 28.5523 23 28V17V14C23 13.4477 22.5523 13 22 13H19V17V28C19 28.5523 19.4477 29 20 29H22Z" fill="#1A453E"/>
<path d="M19 17V28C19 28.5523 19.4477 29 20 29H22C22.5523 29 23 28.5523 23 28V17V14C23 13.4477 22.5523 13 22 13H19M19 17H11C10.4477 17 10 17.4477 10 18L10 28C10 28.5523 9.55228 29 9 29H7C6.44772 29 6 28.5523 6 28V17V13V2C6 1.44772 6.44772 1 7 1H9C9.55228 1 10 1.44771 10 2L10 12C10 12.5523 10.4477 13 11 13H19M19 17V13" stroke="#AAAAAA" stroke-width="0.5"/>
</svg>
