<svg width="28" height="30" viewBox="0 0 28 30" fill="none" xmlns="http://www.w3.org/2000/svg">
<path d="M10 2C10 1.44771 9.55228 1 9 1H7C6.44772 1 6 1.44771 6 2V28C6 28.5523 6.44772 29 7 29H9C9.55228 29 10 28.5523 10 28L10 17V13L10 2Z" fill="#1A453E"/>
<path d="M10 13H22C22.5523 13 23 13.4477 23 14V17V28C23 28.5523 22.5523 29 22 29H20C19.4477 29 19 28.5523 19 28V18C19 17.4477 18.5523 17 18 17H10M10 13L10 2C10 1.44771 9.55228 1 9 1H7C6.44772 1 6 1.44771 6 2V28C6 28.5523 6.44772 29 7 29H9C9.55228 29 10 28.5523 10 28L10 17M10 13V17" stroke="#AAAAAA" stroke-width="0.5"/>
</svg>
