<svg width="28" height="30" viewBox="0 0 28 30" fill="none" xmlns="http://www.w3.org/2000/svg">
<path d="M23 14C23 13.4477 22.5523 13 22 13H10H6V17H10H19H23V14Z" fill="#1A453E"/>
<path d="M19 17V28C19 28.5523 19.4477 29 20 29H22C22.5523 29 23 28.5523 23 28V17M19 17H10M19 17H23M23 17V14C23 13.4477 22.5523 13 22 13H10M10 13L10 2C10 1.44771 9.55228 1 9 1H7C6.44772 1 6 1.44772 6 2V13M10 13H6M10 17L10 28C10 28.5523 9.55228 29 9 29H7C6.44772 29 6 28.5523 6 28V17M10 17H6M6 13V17" stroke="#AAAAAA" stroke-width="0.5"/>
</svg>
