<svg width="72" height="24" viewBox="0 0 72 24" fill="none" xmlns="http://www.w3.org/2000/svg">
<path d="M0 12C0 5.37258 5.37258 0 12 0H72V24H12C5.37258 24 0 18.6274 0 12Z" fill="#EFCF2C"/>
<path d="M25.1914 13.2871H26.2695C26.2422 13.873 26.123 14.3789 25.9121 14.8047C25.7051 15.2266 25.4023 15.5508 25.0039 15.7773C24.6094 16.0039 24.1152 16.1172 23.5215 16.1172C23.0957 16.1172 22.7109 16.0332 22.3672 15.8652C22.0234 15.6973 21.7285 15.457 21.4824 15.1445C21.2402 14.8281 21.0547 14.4492 20.9258 14.0078C20.7969 13.5664 20.7324 13.0703 20.7324 12.5195V10.9434C20.7324 10.3965 20.7969 9.90234 20.9258 9.46094C21.0586 9.01953 21.248 8.64258 21.4941 8.33008C21.7441 8.01367 22.0469 7.77148 22.4023 7.60352C22.7617 7.43555 23.168 7.35156 23.6211 7.35156C24.1758 7.35156 24.6445 7.46289 25.0273 7.68555C25.4141 7.9043 25.7109 8.22656 25.918 8.65234C26.1289 9.07422 26.2461 9.5918 26.2695 10.2051H25.1914C25.1641 9.75586 25.0938 9.39062 24.9805 9.10938C24.8672 8.82422 24.6992 8.61523 24.4766 8.48242C24.2578 8.3457 23.9727 8.27734 23.6211 8.27734C23.3086 8.27734 23.0371 8.33984 22.8066 8.46484C22.5801 8.58984 22.3926 8.76953 22.2441 9.00391C22.0996 9.23438 21.9902 9.51367 21.916 9.8418C21.8457 10.166 21.8105 10.5293 21.8105 10.9316V12.5195C21.8105 12.8945 21.8398 13.2441 21.8984 13.5684C21.9609 13.8926 22.0586 14.1777 22.1914 14.4238C22.3281 14.666 22.5059 14.8555 22.7246 14.9922C22.9434 15.1289 23.209 15.1973 23.5215 15.1973C23.916 15.1973 24.2285 15.1328 24.459 15.0039C24.6895 14.875 24.8594 14.6699 24.9688 14.3887C25.082 14.1074 25.1562 13.7402 25.1914 13.2871ZM28.7188 9.66016V16H27.6816V9.66016H28.7188ZM32.2051 9.66016L29.6562 13.293H28.373L28.209 12.3438H29.2344L30.9629 9.66016H32.2051ZM31.0566 16L29.1992 13.1289L29.8613 12.3438L32.3574 16H31.0566ZM34.4785 14.2832L36.7754 9.66016H37.8125V16H36.7754V11.377L34.4785 16H33.4473V9.66016H34.4785V14.2832ZM40.4375 9.66016H41.4746L41.3984 12.0332C41.3789 12.6348 41.3203 13.1543 41.2227 13.5918C41.125 14.0293 41 14.4023 40.8477 14.7109C40.6953 15.0156 40.5234 15.2715 40.332 15.4785C40.1406 15.6855 39.9414 15.8594 39.7344 16H39.2305L39.2539 15.1152L39.459 15.1094C39.5723 14.957 39.6797 14.8008 39.7812 14.6406C39.8828 14.4766 39.9746 14.2832 40.0566 14.0605C40.1387 13.834 40.2051 13.5586 40.2559 13.2344C40.3105 12.9062 40.3457 12.5059 40.3613 12.0332L40.4375 9.66016ZM40.6777 9.66016H43.9766V16H42.9395V10.6621H40.6777V9.66016ZM39.0312 15.1094H44.7148V17.8691H43.6777V16H40.0684V17.8691H39.0254L39.0312 15.1094ZM47.0352 9.66016V16H45.998V9.66016H47.0352ZM50.5215 9.66016L47.9727 13.293H46.6895L46.5254 12.3438H47.5508L49.2793 9.66016H50.5215ZM49.373 16L47.5156 13.1289L48.1777 12.3438L50.6738 16H49.373ZM54.7754 14.916V11.4766C54.7754 11.2266 54.7363 11.0254 54.6582 10.873C54.584 10.7207 54.4707 10.6094 54.3184 10.5391C54.1699 10.4688 53.9824 10.4336 53.7559 10.4336C53.5371 10.4336 53.3477 10.4785 53.1875 10.5684C53.0312 10.6582 52.9102 10.7773 52.8242 10.9258C52.7422 11.0742 52.7012 11.2383 52.7012 11.418H51.6641C51.6641 11.1914 51.7129 10.9668 51.8105 10.7441C51.9121 10.5215 52.0566 10.3203 52.2441 10.1406C52.4316 9.95703 52.6562 9.8125 52.918 9.70703C53.1836 9.59766 53.4805 9.54297 53.8086 9.54297C54.1992 9.54297 54.5449 9.60742 54.8457 9.73633C55.1465 9.86133 55.3828 10.0664 55.5547 10.3516C55.7266 10.6367 55.8125 11.0156 55.8125 11.4883V14.6172C55.8125 14.8281 55.8281 15.0527 55.8594 15.291C55.8945 15.5293 55.9434 15.7344 56.0059 15.9062V16H54.9336C54.8828 15.875 54.8438 15.709 54.8164 15.502C54.7891 15.291 54.7754 15.0957 54.7754 14.916ZM54.9395 12.1562L54.9512 12.918H54.2305C53.9844 12.918 53.7598 12.9453 53.5566 13C53.3574 13.0547 53.1855 13.1348 53.041 13.2402C52.8965 13.3418 52.7852 13.4688 52.707 13.6211C52.6328 13.7734 52.5957 13.9473 52.5957 14.1426C52.5957 14.3965 52.6309 14.5996 52.7012 14.752C52.7715 14.9004 52.877 15.0078 53.0176 15.0742C53.1582 15.1406 53.3359 15.1738 53.5508 15.1738C53.8125 15.1738 54.043 15.1133 54.2422 14.9922C54.4414 14.8711 54.5957 14.7246 54.7051 14.5527C54.8184 14.3809 54.8711 14.2207 54.8633 14.0723L55.0918 14.5586C55.0762 14.7109 55.0254 14.877 54.9395 15.0566C54.8574 15.2324 54.7422 15.4023 54.5938 15.5664C54.4453 15.7266 54.2695 15.8594 54.0664 15.9648C53.8672 16.0664 53.6426 16.1172 53.3926 16.1172C53.0254 16.1172 52.7031 16.0469 52.4258 15.9062C52.1523 15.7656 51.9395 15.5586 51.7871 15.2852C51.6348 15.0117 51.5586 14.6738 51.5586 14.2715C51.5586 13.9668 51.6113 13.6855 51.7168 13.4277C51.8223 13.1699 51.9785 12.9473 52.1855 12.7598C52.3926 12.5684 52.6523 12.4199 52.9648 12.3145C53.2812 12.209 53.6465 12.1562 54.0605 12.1562H54.9395Z" fill="#3B3B3B"/>
</svg>
