<svg width="77" height="24" viewBox="0 0 77 24" fill="none" xmlns="http://www.w3.org/2000/svg">
<path d="M77 12C77 5.37258 71.6274 0 65 0H0V24H65C71.6274 24 77 18.6274 77 12Z" fill="#777B5C"/>
<path d="M14.5039 12.0098H12.7695L12.7578 11.1016H14.3691C14.6113 11.1016 14.8262 11.0469 15.0137 10.9375C15.2012 10.8281 15.3477 10.6719 15.4531 10.4688C15.5625 10.2617 15.6172 10.0156 15.6172 9.73047C15.6172 9.41797 15.5703 9.16406 15.4766 8.96875C15.3867 8.76953 15.248 8.625 15.0605 8.53516C14.877 8.44141 14.6426 8.39453 14.3574 8.39453H12.998V16H11.9199V7.46875H14.3574C14.7246 7.46875 15.0527 7.51367 15.3418 7.60352C15.6309 7.68945 15.875 7.82617 16.0742 8.01367C16.2773 8.19727 16.4316 8.43164 16.5371 8.7168C16.6426 9.00195 16.6953 9.34375 16.6953 9.74219C16.6953 10.0938 16.6152 10.4121 16.4551 10.6973C16.2988 10.9785 16.0801 11.209 15.7988 11.3887C15.5176 11.5684 15.1934 11.6836 14.8262 11.7344L14.5039 12.0098ZM14.4629 16H12.3242L12.9512 15.0801H14.4629C14.7441 15.0801 14.9824 15.0176 15.1777 14.8926C15.373 14.7676 15.5215 14.5918 15.623 14.3652C15.7285 14.1348 15.7812 13.8633 15.7812 13.5508C15.7812 13.2344 15.7383 12.9609 15.6523 12.7305C15.5664 12.5 15.4297 12.3223 15.2422 12.1973C15.0547 12.0723 14.8086 12.0098 14.5039 12.0098H13.1152L13.127 11.1016H15.002L15.2422 11.4297C15.5938 11.4648 15.8887 11.582 16.127 11.7812C16.3691 11.9766 16.5508 12.2266 16.6719 12.5312C16.7969 12.8359 16.8594 13.1719 16.8594 13.5391C16.8594 14.0703 16.7598 14.5195 16.5605 14.8867C16.3652 15.25 16.0879 15.5273 15.7285 15.7188C15.3691 15.9062 14.9473 16 14.4629 16ZM24.6934 12.4082V13.2871H22.0039V12.4082H24.6934ZM22.2148 9.66016V16H21.1777V9.66016H22.2148ZM25.5371 9.66016V16H24.5V9.66016H25.5371ZM30.2949 14.916V11.4766C30.2949 11.2266 30.2559 11.0254 30.1777 10.873C30.1035 10.7207 29.9902 10.6094 29.8379 10.5391C29.6895 10.4688 29.502 10.4336 29.2754 10.4336C29.0566 10.4336 28.8672 10.4785 28.707 10.5684C28.5508 10.6582 28.4297 10.7773 28.3438 10.9258C28.2617 11.0742 28.2207 11.2383 28.2207 11.418H27.1836C27.1836 11.1914 27.2324 10.9668 27.3301 10.7441C27.4316 10.5215 27.5762 10.3203 27.7637 10.1406C27.9512 9.95703 28.1758 9.8125 28.4375 9.70703C28.7031 9.59766 29 9.54297 29.3281 9.54297C29.7188 9.54297 30.0645 9.60742 30.3652 9.73633C30.666 9.86133 30.9023 10.0664 31.0742 10.3516C31.2461 10.6367 31.332 11.0156 31.332 11.4883V14.6172C31.332 14.8281 31.3477 15.0527 31.3789 15.291C31.4141 15.5293 31.4629 15.7344 31.5254 15.9062V16H30.4531C30.4023 15.875 30.3633 15.709 30.3359 15.502C30.3086 15.291 30.2949 15.0957 30.2949 14.916ZM30.459 12.1562L30.4707 12.918H29.75C29.5039 12.918 29.2793 12.9453 29.0762 13C28.877 13.0547 28.7051 13.1348 28.5605 13.2402C28.416 13.3418 28.3047 13.4688 28.2266 13.6211C28.1523 13.7734 28.1152 13.9473 28.1152 14.1426C28.1152 14.3965 28.1504 14.5996 28.2207 14.752C28.291 14.9004 28.3965 15.0078 28.5371 15.0742C28.6777 15.1406 28.8555 15.1738 29.0703 15.1738C29.332 15.1738 29.5625 15.1133 29.7617 14.9922C29.9609 14.8711 30.1152 14.7246 30.2246 14.5527C30.3379 14.3809 30.3906 14.2207 30.3828 14.0723L30.6113 14.5586C30.5957 14.7109 30.5449 14.877 30.459 15.0566C30.377 15.2324 30.2617 15.4023 30.1133 15.5664C29.9648 15.7266 29.7891 15.8594 29.5859 15.9648C29.3867 16.0664 29.1621 16.1172 28.9121 16.1172C28.5449 16.1172 28.2227 16.0469 27.9453 15.9062C27.6719 15.7656 27.459 15.5586 27.3066 15.2852C27.1543 15.0117 27.0781 14.6738 27.0781 14.2715C27.0781 13.9668 27.1309 13.6855 27.2363 13.4277C27.3418 13.1699 27.498 12.9473 27.7051 12.7598C27.9121 12.5684 28.1719 12.4199 28.4844 12.3145C28.8008 12.209 29.166 12.1562 29.5801 12.1562H30.459ZM36.4824 9.66016V10.5566H33.957V9.66016H36.4824ZM37.4082 9.66016V16H36.377V9.66016H37.4082ZM33.7109 9.66016H34.748L34.6016 12.7188C34.5781 13.1914 34.5391 13.6094 34.4844 13.9727C34.4336 14.332 34.3613 14.6406 34.2676 14.8984C34.1777 15.1562 34.0645 15.3672 33.9277 15.5312C33.7949 15.6914 33.6348 15.8105 33.4473 15.8887C33.2637 15.9629 33.0508 16 32.8086 16H32.498V15.0449L32.7031 15.0273C32.8398 15.0156 32.957 14.9766 33.0547 14.9102C33.1562 14.8438 33.2383 14.7461 33.3008 14.6172C33.3672 14.4844 33.4199 14.3145 33.459 14.1074C33.502 13.9004 33.5352 13.6543 33.5586 13.3691C33.582 13.084 33.5996 12.752 33.6113 12.373L33.7109 9.66016ZM40.1973 14.2832L42.4941 9.66016H43.5312V16H42.4941V11.377L40.1973 16H39.166V9.66016H40.1973V14.2832ZM49.2969 9.66016V16H48.2598V9.66016H49.2969ZM48.9453 12.5723V13.4629C48.75 13.5449 48.5586 13.6191 48.3711 13.6855C48.1836 13.748 47.9863 13.7988 47.7793 13.8379C47.5723 13.873 47.3418 13.8906 47.0879 13.8906C46.6777 13.8906 46.3164 13.8047 46.0039 13.6328C45.6953 13.457 45.4551 13.1934 45.2832 12.8418C45.1113 12.4863 45.0254 12.0391 45.0254 11.5V9.64844H46.0625V11.5C46.0625 11.8516 46.1016 12.1367 46.1797 12.3555C46.2617 12.5742 46.3789 12.7363 46.5312 12.8418C46.6875 12.9434 46.873 12.9941 47.0879 12.9941C47.3301 12.9941 47.5527 12.9766 47.7559 12.9414C47.959 12.9023 48.1562 12.8516 48.3477 12.7891C48.543 12.7266 48.7422 12.6543 48.9453 12.5723ZM52.0801 14.2832L54.377 9.66016H55.4141V16H54.377V11.377L52.0801 16H51.0488V9.66016H52.0801V14.2832ZM58.1973 14.2832L60.4941 9.66016H61.5312V16H60.4941V11.377L58.1973 16H57.166V9.66016H58.1973V14.2832Z" fill="white"/>
</svg>
