<svg width="16" height="17" viewBox="0 0 16 17" fill="none" xmlns="http://www.w3.org/2000/svg">
<circle cx="8" cy="8.5" r="8" fill="#3B3B3B"/>
<path d="M8.46319 10.1183H7.31191C7.31191 9.78853 7.33333 9.50896 7.37617 9.27957C7.42258 9.0466 7.49933 8.83692 7.60643 8.65054C7.71352 8.46416 7.8581 8.26702 8.04016 8.05914C8.1651 7.90502 8.28112 7.75806 8.38822 7.61828C8.49888 7.47491 8.58635 7.32616 8.6506 7.17204C8.71843 7.01434 8.75234 6.83154 8.75234 6.62366C8.75234 6.40143 8.72378 6.21326 8.66667 6.05914C8.60955 5.90502 8.52744 5.78853 8.42035 5.70968C8.31325 5.62724 8.17938 5.58602 8.01874 5.58602C7.89737 5.58602 7.77778 5.62186 7.65997 5.69355C7.54574 5.76165 7.44935 5.86738 7.37082 6.01075C7.29228 6.15412 7.25301 6.3405 7.25301 6.56989H6C6.00714 6.1147 6.09817 5.73297 6.27309 5.42473C6.45158 5.11649 6.69255 4.8853 6.99598 4.73118C7.29942 4.57706 7.64034 4.5 8.01874 4.5C8.43641 4.5 8.79161 4.58244 9.08434 4.74731C9.38063 4.9086 9.60732 5.14516 9.76439 5.45699C9.92146 5.76882 10 6.14158 10 6.57527C10 6.89427 9.94467 7.181 9.834 7.43548C9.72334 7.68996 9.58054 7.92832 9.40562 8.15054C9.23427 8.36918 9.05399 8.58602 8.86479 8.80108C8.70772 8.98387 8.60241 9.1828 8.54886 9.39785C8.49531 9.60932 8.46676 9.84946 8.46319 10.1183ZM7.22624 11.7957C7.22624 11.595 7.28693 11.4265 7.4083 11.2903C7.53324 11.1505 7.70281 11.0806 7.917 11.0806C8.13476 11.0806 8.30433 11.1505 8.4257 11.2903C8.54708 11.4265 8.60776 11.595 8.60776 11.7957C8.60776 11.9928 8.54708 12.1595 8.4257 12.2957C8.30433 12.4319 8.13476 12.5 7.917 12.5C7.70281 12.5 7.53324 12.4319 7.4083 12.2957C7.28693 12.1595 7.22624 11.9928 7.22624 11.7957Z" fill="white"/>
</svg>
