<svg width="32" height="32" viewBox="0 0 32 32" fill="none" xmlns="http://www.w3.org/2000/svg">
<rect width="32" height="32" rx="4" fill="#28D146"/>
<path d="M20.7005 11.2733C20.0893 10.6559 19.3613 10.1664 18.5589 9.83336C17.7566 9.50028 16.8959 9.3303 16.0272 9.33332C12.3872 9.33332 9.42052 12.3 9.42052 15.94C9.42052 17.1067 9.72719 18.24 10.3005 19.24L9.36719 22.6667L12.8672 21.7467C13.8339 22.2733 14.9205 22.5533 16.0272 22.5533C19.6672 22.5533 22.6339 19.5867 22.6339 15.9467C22.6339 14.18 21.9472 12.52 20.7005 11.2733ZM16.0272 21.4333C15.0405 21.4333 14.0739 21.1667 13.2272 20.6667L13.0272 20.5467L10.9472 21.0933L11.5005 19.0667L11.3672 18.86C10.819 17.9846 10.5279 16.9728 10.5272 15.94C10.5272 12.9133 12.9939 10.4467 16.0205 10.4467C17.4872 10.4467 18.8672 11.02 19.9005 12.06C20.4122 12.5693 20.8177 13.1751 21.0934 13.8423C21.3692 14.5094 21.5099 15.2247 21.5072 15.9467C21.5205 18.9733 19.0539 21.4333 16.0272 21.4333ZM19.0405 17.3267C18.8739 17.2467 18.0605 16.8467 17.9139 16.7867C17.7605 16.7333 17.6539 16.7067 17.5405 16.8667C17.4272 17.0333 17.1139 17.4067 17.0205 17.5133C16.9272 17.6267 16.8272 17.64 16.6605 17.5533C16.4939 17.4733 15.9605 17.2933 15.3339 16.7333C14.8405 16.2933 14.5139 15.7533 14.4139 15.5867C14.3205 15.42 14.4005 15.3333 14.4872 15.2467C14.5605 15.1733 14.6539 15.0533 14.7339 14.96C14.8139 14.8667 14.8472 14.7933 14.9005 14.6867C14.9539 14.5733 14.9272 14.48 14.8872 14.4C14.8472 14.32 14.5139 13.5067 14.3805 13.1733C14.2472 12.8533 14.1072 12.8933 14.0072 12.8867H13.6872C13.5739 12.8867 13.4005 12.9267 13.2472 13.0933C13.1005 13.26 12.6739 13.66 12.6739 14.4733C12.6739 15.2867 13.2672 16.0733 13.3472 16.18C13.4272 16.2933 14.5139 17.96 16.1672 18.6733C16.5605 18.8467 16.8672 18.9467 17.1072 19.02C17.5005 19.1467 17.8605 19.1267 18.1472 19.0867C18.4672 19.04 19.1272 18.6867 19.2605 18.3C19.4005 17.9133 19.4005 17.5867 19.3539 17.5133C19.3072 17.44 19.2072 17.4067 19.0405 17.3267Z" fill="white"/>
</svg>
